<svg width="69" height="54" viewBox="0 0 69 54" fill="none" xmlns="http://www.w3.org/2000/svg">
<path d="M13.3593 31.6296C14.6246 28.7525 21.0721 17.8438 21.0721 15.9258C21.0721 15.2664 20.831 14.5472 20.4996 14.5472C19.9573 14.5472 15.1067 22.5789 11.7926 30.5507C10.3164 30.7905 8.96062 30.9103 7.93629 30.9703C8.59909 29.5317 9.29207 28.1831 9.98495 26.8945L10.8285 25.3361C13.2387 20.8708 15.3477 17.7839 15.3477 15.9258C15.3477 15.2664 15.1067 14.5472 14.7753 14.5472C13.8412 14.5472 7.21324 27.434 6.00806 30.9703C4.83314 31.1202 3.29669 31.4498 2.15176 31.8095C3.86897 28.2131 4.56195 26.8345 5.04398 25.9355C7.36392 21.4701 9.47283 18.3832 9.47283 16.3454C9.47283 15.656 9.23173 14.9368 8.87029 14.9368C8.17731 14.9368 4.47161 21.9496 2.54346 26.0853C0.856241 29.7416 0.735731 30.251 0.554967 30.7306C0.253694 31.5397 0.253694 31.9293 0.524884 32.4388C0.735732 32.8283 0.916495 33.2779 1.1576 33.5476C1.51904 33.9973 1.85049 33.9973 2.42286 33.8474C4.11008 33.3978 7.394 32.6785 8.7196 32.6486C10.2561 32.6186 11.401 32.4987 12.3952 32.4388C12.9676 32.3489 13.1183 32.1691 13.3593 31.6296Z" fill="#71B639"/>
<path d="M32.6713 16.7949C33.0329 16.8549 33.0931 16.645 33.0027 16.4053C32.6412 15.4164 31.9784 14.9069 30.713 14.9369C29.0259 14.9668 25.7118 15.8359 23.2112 15.686C22.9099 15.6561 22.8195 15.776 22.8798 16.0457C23.0605 16.6751 23.392 17.2744 24.1452 17.5741C21.6144 21.4701 18.6017 27.0443 17.2157 30.7306C16.9145 31.5397 16.9145 31.9293 17.1856 32.4389C17.3966 32.8284 17.5773 33.2779 17.8183 33.5476C18.1798 33.9973 18.5112 33.9973 19.0837 33.8474C20.7708 33.3979 24.0548 32.6186 25.7419 32.6486C26.1034 32.6486 26.1336 32.4687 26.0432 32.199C25.7118 31.3 24.9586 30.8205 23.4823 30.8804C22.2471 30.9404 20.2587 31.3599 18.8125 31.8095C19.4452 30.4009 20.2587 28.7526 21.1324 27.0743C22.8195 26.6548 25.0791 26.2352 26.706 26.2352C27.0977 26.2352 27.0977 26.0554 27.0072 25.7856C26.706 24.8566 26.0432 24.3771 24.5368 24.4371C23.9945 24.467 23.2112 24.527 22.3978 24.6768C23.8741 22.0096 25.3503 19.4023 26.5554 17.604C28.3932 17.3044 30.5021 16.765 32.6713 16.7949Z" fill="#71B639"/>
<path d="M37.2139 27.7699C39.1925 23.9781 41.2897 20.18 42.4027 18.2334C42.9712 17.234 43.2959 16.3964 43.4458 15.6973C45.0999 15.9625 45.747 16.7774 45.747 18.4433C45.747 22.775 41.5144 27.0314 37.2139 27.7699ZM32.1594 24.6768C32.1594 20.7605 37.2644 16.1216 41.2854 15.64C39.3202 18.8699 36.5978 23.9253 34.7555 27.7996C32.9628 27.5226 32.1594 26.5303 32.1594 24.6768ZM47.8861 19.1025C47.8861 17.129 46.1342 15.2398 43.5336 15.1225C43.5869 14.5094 43.4895 14.025 43.3066 13.6482C43.1259 13.2886 42.8548 13.2285 42.5836 13.6182C42.4019 13.8793 42.2024 14.1794 41.989 14.5117C41.7026 14.4759 41.3256 14.4573 40.806 14.4573C35.5638 14.4573 29.8696 18.3533 29.8696 24.1973C29.8696 26.1792 31.0113 28.1183 34.3344 28.6977C33.8053 29.8444 33.3747 30.8526 33.0934 31.6296C32.4306 33.4578 32.792 34.5066 33.2139 34.9563C33.4549 35.2259 33.5754 35.1959 33.6959 34.8963C34.4577 33.1938 35.5124 31.0634 36.6433 28.87C43.2398 28.8178 47.8861 24.3166 47.8861 19.1025" fill="#71B639"/>
<path d="M47.9766 27.9434C48.0369 30.4009 49.2119 32.2589 50.5676 32.9783C52.1945 33.8474 54.7252 33.8773 56.8642 32.349C58.1297 31.4498 60.0578 29.2022 59.3046 27.1942C59.1539 26.8046 58.8226 26.8046 58.672 27.1342C56.3823 31.5997 53.1887 33.6076 51.2606 32.0492C49.7843 30.8505 49.483 26.4151 52.1342 22.0395C54.8458 17.5742 59.4251 15.1466 60.2687 16.0457C60.9616 16.765 59.8771 18.4732 59.3951 20.0615C58.9431 21.56 59.4251 22.489 60.1181 22.9385C60.4796 23.1784 60.6905 22.9985 60.7809 22.7588C61.1123 21.8897 61.5341 20.7209 61.9861 19.7918C62.4379 18.8628 62.5284 18.0236 62.2572 17.1546C62.0161 16.4053 61.3232 15.5362 60.6603 14.9668C59.6962 14.1276 58.22 14.2475 56.5931 14.8769C53.2188 16.1656 47.856 21.59 47.9766 27.9434Z" fill="#71B639"/>
<path d="M39.1332 36.5763C37.4569 38.8603 37.0519 39.894 36.5846 41.5619C36.2669 42.6804 36.4051 43.248 36.73 43.5337C36.8818 43.6681 37.0425 43.6221 37.0946 43.4748C38.4546 40.0762 39.0149 39.5549 39.6848 38.1803C40.0831 37.3631 39.8737 36.962 39.6879 36.6134C39.5248 36.2995 39.3029 36.3495 39.1332 36.5763Z" fill="#71B639"/>
<path d="M63.4529 36.1506C64.0155 35.6651 64.9437 35.4629 65.0821 36.0304C65.1636 36.3494 65.1105 36.8029 65.003 37.3678C64.8946 37.915 64.5427 38.8195 64.2687 39.3407C63.3747 41.0534 62.1716 41.7591 61.5747 41.3823C61.0199 41.021 61.2212 39.3517 61.9907 37.9349C62.3753 37.2266 62.9289 36.5976 63.4529 36.1506ZM53.6406 42.0956C52.8447 42.1277 53.0096 40.5326 53.992 38.9224C55.0117 37.2559 56.4253 35.9967 57.0809 36.0098C57.6752 36.0265 57.5622 37.15 56.4035 39.2035C55.4642 40.8469 54.4773 42.0613 53.6406 42.0956V42.0956ZM68.0991 31.0153C68.716 30.4184 68.8403 29.4744 68.6908 29.0516C68.616 28.8401 68.4938 28.8478 68.3816 29.0168C67.7695 30.0096 66.762 30.577 65.9119 31.0446C63.2845 32.4866 62.1332 34.0161 60.5815 37.5825C60.202 38.3422 59.9901 39.1134 60.0165 39.8081C59.3804 40.9119 58.4932 41.9043 57.7661 41.9813C57.0755 42.0605 57.047 41.288 57.4928 40.2517C57.9217 39.2703 58.8552 37.8613 59.2525 37.0261C59.6848 36.0986 59.473 35.3375 59.1469 35.0338C58.9939 34.8813 58.8331 34.9275 58.6645 35.1722C58.4586 35.4732 58.2379 35.8652 58.0002 36.3122C57.9968 35.6102 57.5517 35.0439 56.6754 35.0988C55.6564 35.1626 54.0978 36.0706 52.5812 38.2906C51.8981 39.2913 51.6183 40.2873 51.6798 41.0796C51.1473 41.8195 50.5645 42.373 50.02 42.4307C49.2275 42.5164 49.1085 41.9296 49.51 40.842L50.8792 36.9387C51.1043 36.2943 51.0407 35.6141 50.7146 35.3103C50.5402 35.1412 50.1961 35.1987 50.0082 35.4627L48.0537 38.5203C46.1003 41.5959 45.17 42.7346 44.6402 42.7679C44.3841 42.784 44.2729 42.4986 44.2898 42.1036C44.5181 41.825 44.6963 41.5408 44.8332 41.2972C45.1107 40.8297 45.124 40.3966 45.0085 40.1878C44.8929 39.9789 44.7108 40.0083 44.6021 40.2314C44.5349 40.3742 44.4601 40.5215 44.3792 40.6701C44.1329 40.7488 43.8143 40.9738 43.7069 41.2779C43.6305 41.4858 43.5686 41.7089 43.5337 41.9283C43.0954 42.4493 42.6165 42.8235 42.1878 42.8136C41.409 42.7903 40.7736 41.8037 40.5989 40.338C42.7487 39.3931 43.6111 38.4746 44.2538 37.3179C44.6579 36.5902 44.2172 35.7716 43.6842 36.3991C42.4663 37.8441 41.2033 38.8957 39.5063 39.5602C39.127 39.71 39.0885 39.7484 39.1089 40.0714C39.2216 42.4952 40.4887 43.4423 41.9162 43.3708C42.6049 43.3353 43.1563 43.0938 43.5972 42.7684C43.7444 43.1045 44.0829 43.3251 44.7342 43.2842C45.8346 43.2152 47.0841 41.9485 48.6323 38.9343L48.7965 38.942C47.2224 42.1919 47.9358 43.1196 49.8106 43.0021C50.569 42.9546 51.3446 42.5269 51.9322 41.9527C52.2207 42.4548 52.7406 42.7465 53.4539 42.7017C54.432 42.6404 55.3071 41.9192 55.9125 41.1431C55.9659 41.986 56.5729 42.5242 57.6767 42.5091C58.6504 42.4948 59.6962 41.6922 60.2626 40.8151C60.3614 41.0141 60.489 41.2003 60.6532 41.3682C61.5274 42.2496 62.5508 42.2575 63.2709 41.9964C64.7504 41.4535 65.9817 39.5756 66.2508 38.0101C66.3402 37.4822 66.3117 37.3579 66.3231 37.2132C66.3636 35.9142 65.7443 35.8269 65.2404 35.3002C64.8021 34.8415 64.4455 34.7017 63.816 34.7772C63.3893 34.8292 62.9681 35.0022 62.5704 35.2568C63.7646 32.9647 66.9545 32.1584 68.0991 31.0153" fill="#71B639"/>
<path d="M16.9669 10.5313C17.0184 10.5417 17.0699 10.5522 17.1215 10.5627C17.3777 10.615 17.6409 10.5276 17.818 10.336C22.3486 5.43532 28.8438 2.35856 36.0487 2.35856C43.0145 2.35856 49.3171 5.23451 53.822 9.85425C54.0689 10.1074 54.4609 10.1455 54.7584 9.95382C54.7602 9.95268 54.762 9.95155 54.7637 9.95041C54.7973 9.9288 54.831 9.90718 54.8648 9.88557C55.2581 9.6341 55.3266 9.0874 55.0014 8.75323C50.2009 3.82086 43.4788 0.74996 36.0487 0.74996C28.3431 0.74996 21.3986 4.05256 16.5697 9.30921C16.1806 9.73288 16.4016 10.4167 16.9669 10.5313Z" fill="#71B639"/>
<path d="M52.6308 45.9365C52.6255 45.934 52.6202 45.9315 52.6148 45.9291C52.3321 45.7955 51.9993 45.8403 51.7575 46.0381C47.4794 49.5374 42.0067 51.6414 36.0487 51.6414C25.4168 51.6414 16.3279 44.9441 12.8215 35.5679C12.6762 35.1794 12.2571 34.9662 11.8562 35.0789C11.8508 35.0804 11.8456 35.0819 11.8404 35.0833C11.3914 35.2093 11.1422 35.6889 11.3047 36.1239C15.0394 46.1137 24.7215 53.25 36.0487 53.25C42.4011 53.25 48.2363 51.0054 52.7953 47.2718C53.2484 46.9008 53.1609 46.187 52.6308 45.9365Z" fill="#71B639"/>
</svg>
